<svg width="72" height="72" viewBox="0 0 72 72" fill="none" xmlns="http://www.w3.org/2000/svg">
<path d="M69.8076 40.71C62.2436 29.128 63.0476 17.2561 59.4016 11.6741C55.7556 6.09205 44.8896 -3.53195 19.2156 13.2381C-6.45841 30.0081 0.0715873 48.238 4.08359 54.376C22.8596 83.12 83.2056 61.222 69.8076 40.71V40.71Z" fill="#ECEFF2"/>
<path d="M61.9115 42.0325L63.3257 40.6183L66.1542 43.4467L64.7399 44.8609L61.9115 42.0325Z" fill="#C2C8CD"/>
<path d="M53.7802 33.9028L55.1944 32.4886L58.0228 35.317L56.6086 36.7313L53.7802 33.9028Z" fill="#C2C8CD"/>
<path d="M62.2688 35.3269L65.0972 32.4985L66.5114 33.9127L63.683 36.7411L62.2688 35.3269Z" fill="#C2C8CD"/>
<path d="M37.9795 66.1602C36.3255 66.1602 34.9795 64.8142 34.9795 63.1602C34.9795 61.5062 36.3255 60.1602 37.9795 60.1602C39.6335 60.1602 40.9795 61.5062 40.9795 63.1602C40.9795 64.8142 39.6335 66.1602 37.9795 66.1602ZM37.9795 62.1602C37.4275 62.1602 36.9795 62.6082 36.9795 63.1602C36.9795 63.7122 37.4275 64.1602 37.9795 64.1602C38.5315 64.1602 38.9795 63.7122 38.9795 63.1602C38.9795 62.6082 38.5315 62.1602 37.9795 62.1602Z" fill="#C2C8CD"/>
<path d="M39.0603 33.5H16.5003V40.5V54.5H23.5003H30.4603H45.5003V40.6V33.5H39.0603Z" fill="#F3F3F1"/>
<path d="M50.4999 40.5999H45.5V54.4999H47.5H54.4579H58.4999V48.5999C58.4999 44.1819 54.9179 40.5999 50.4999 40.5999Z" fill="#2A6CEA"/>
<path d="M26.9998 58.5C28.9328 58.5 30.4998 56.933 30.4998 55C30.4998 53.067 28.9328 51.5 26.9998 51.5C25.0668 51.5 23.4997 53.067 23.4997 55C23.4997 56.933 25.0668 58.5 26.9998 58.5Z" fill="#F3F3F1"/>
<path d="M51.0005 58.5C52.9335 58.5 54.5005 56.933 54.5005 55C54.5005 53.067 52.9335 51.5 51.0005 51.5C49.0675 51.5 47.5005 53.067 47.5005 55C47.5005 56.933 49.0675 58.5 51.0005 58.5Z" fill="#F3F3F1"/>
<path d="M25 36.5C31.3513 36.5 36.5 31.3513 36.5 25C36.5 18.6487 31.3513 13.5 25 13.5C18.6487 13.5 13.5 18.6487 13.5 25C13.5 31.3513 18.6487 36.5 25 36.5Z" fill="#2A6CEA"/>
<path d="M21 36H16V42.3333V55H21V42.3333V36Z" fill="#E1E6EA"/>
<path d="M45.5 40.5999V54.4999H47.5H50V40.5999H45.5Z" fill="#191C1F" fill-opacity="0.1"/>
<path d="M27.9998 55C27.9998 53.928 28.4918 52.982 29.2498 52.34C28.6398 51.824 27.8618 51.5 26.9998 51.5C25.0677 51.5 23.4997 53.068 23.4997 55C23.4997 56.932 25.0677 58.5 26.9998 58.5C27.8618 58.5 28.6398 58.176 29.2498 57.66C28.4918 57.018 27.9998 56.072 27.9998 55Z" fill="#D5DBE1"/>
<path d="M52.0005 55C52.0005 53.928 52.4925 52.982 53.2505 52.34C52.6405 51.824 51.8625 51.5 51.0005 51.5C49.0685 51.5 47.5005 53.068 47.5005 55C47.5005 56.932 49.0685 58.5 51.0005 58.5C51.8625 58.5 52.6405 58.176 53.2505 57.66C52.4925 57.018 52.0005 56.072 52.0005 55Z" fill="#D5DBE1"/>
<path d="M18 25C18 19.42 21.976 14.77 27.25 13.724C26.522 13.578 25.77 13.5 25 13.5C18.648 13.5 13.5 18.648 13.5 25C13.5 31.352 18.648 36.5 25 36.5C25.77 36.5 26.522 36.422 27.25 36.276C21.976 35.23 18 30.58 18 25V25Z" fill="#191C1F" fill-opacity="0.1"/>
<path d="M25.0001 30.5002C24.6161 30.5002 24.2321 30.3542 23.9401 30.0602L17.9401 24.0602L20.0621 21.9382L25.0021 26.8782L29.9421 21.9382L32.0641 24.0602L26.0641 30.0602C25.7681 30.3542 25.3841 30.5002 25.0001 30.5002V30.5002Z" fill="white"/>
<path d="M25.0006 56.0003H16.5006C15.6726 56.0003 15.0006 55.3283 15.0006 54.5003V38.7803H18.0006V53.0003H25.0006V56.0003Z" fill="#191C1F"/>
<path d="M45.5001 56.0002H28.9601V53.0002H44.0001V35.0002H38.7801V32.0002H45.5001C46.3281 32.0002 47.0001 32.6722 47.0001 33.5002V54.5002C47.0001 55.3282 46.3281 56.0002 45.5001 56.0002Z" fill="#191C1F"/>
<path d="M58.5003 56.0001H52.9583V53.0001H57.0003V48.6001C57.0003 45.0161 54.0843 42.1001 50.5003 42.1001H47.0003V53.0001H49.0003V56.0001H45.5003C44.6723 56.0001 44.0003 55.3281 44.0003 54.5001V40.6001C44.0003 39.7721 44.6723 39.1001 45.5003 39.1001H50.5003C55.7383 39.1001 60.0003 43.3621 60.0003 48.6001V54.5001C60.0003 55.3281 59.3283 56.0001 58.5003 56.0001Z" fill="#191C1F"/>
<path d="M27 60.0003C24.244 60.0003 22 57.7562 22 55.0002C22 52.2442 24.244 50.0002 27 50.0002C29.756 50.0002 32 52.2442 32 55.0002C32 57.7562 29.756 60.0003 27 60.0003ZM27 53.0002C25.898 53.0002 25 53.8982 25 55.0002C25 56.1022 25.898 57.0002 27 57.0002C28.102 57.0002 29 56.1022 29 55.0002C29 53.8982 28.102 53.0002 27 53.0002Z" fill="#191C1F"/>
<path d="M51.0008 60.0003C48.2448 60.0003 46.0008 57.7562 46.0008 55.0002C46.0008 52.2442 48.2448 50.0002 51.0008 50.0002C53.7568 50.0002 56.0008 52.2442 56.0008 55.0002C56.0008 57.7562 53.7568 60.0003 51.0008 60.0003ZM51.0008 53.0002C49.8988 53.0002 49.0008 53.8982 49.0008 55.0002C49.0008 56.1022 49.8988 57.0002 51.0008 57.0002C52.1028 57.0002 53.0008 56.1022 53.0008 55.0002C53.0008 53.8982 52.1028 53.0002 51.0008 53.0002Z" fill="#191C1F"/>
</svg>
