<svg width="72" height="72" viewBox="0 0 72 72" fill="none" xmlns="http://www.w3.org/2000/svg">
<path d="M8.33415 55.2461C8.33415 41.4121 1.16815 31.9121 1.16815 25.2461C1.16815 18.5801 5.00015 4.58008 35.6662 4.58008C66.3322 4.58008 70.8322 23.4141 70.8322 30.7461C70.8342 65.0801 8.33415 79.7461 8.33415 55.2461V55.2461Z" fill="#ECEFF2"/>
<path d="M53.2497 16.5H55.2497V20.5H53.2497V16.5Z" fill="#C2C8CD"/>
<path d="M57.7497 22.5H61.7497V24.5H57.7497V22.5Z" fill="#C2C8CD"/>
<path d="M42.5 48.64V17.5C42.5 15.29 40.71 13.5 38.5 13.5H17.5C15.29 13.5 13.5 15.29 13.5 17.5V48.64C13.5 50.85 15.29 52.64 17.5 52.64H38.5C40.71 52.64 42.5 50.85 42.5 48.64Z" fill="#F3F3F1"/>
<path d="M47.9997 58.5C47.9997 58.5 58.4997 54.036 58.4997 45.108C58.4997 41.536 58.4997 37.072 58.4997 37.072L47.9997 33.5L37.4997 37.072V45.108C37.4997 54.036 47.9997 58.5 47.9997 58.5Z" fill="#2A6CEA"/>
<path d="M18 48.64V17.5C18 15.29 19.79 13.5 22 13.5H17.5C15.29 13.5 13.5 15.29 13.5 17.5V48.64C13.5 50.85 15.29 52.64 17.5 52.64H22C19.79 52.64 18 50.85 18 48.64Z" fill="#E1E6EA"/>
<path d="M41.9997 45.108C41.9997 39.75 41.9997 37.072 41.9997 37.072L50.2497 34.266L47.9997 33.5L37.4997 37.072V45.108C37.4997 54.036 47.9997 58.5 47.9997 58.5C47.9997 58.5 48.9417 58.094 50.2497 57.302C47.1657 55.434 41.9997 51.376 41.9997 45.108Z" fill="#191C1F" fill-opacity="0.1"/>
<path d="M30.5003 54H17.5003C14.4663 54 12.0003 51.534 12.0003 48.5V17.5C12.0003 14.466 14.4663 12 17.5003 12H38.5003C41.5343 12 44.0003 14.466 44.0003 17.5V28.5H41.0003V17.5C41.0003 16.122 39.8783 15 38.5003 15H17.5003C16.1223 15 15.0003 16.122 15.0003 17.5V48.5C15.0003 49.878 16.1223 51 17.5003 51H30.5003V54Z" fill="#191C1F"/>
<path d="M20.5599 37.5599L18.4399 35.4399L23.4399 30.4399C23.9179 29.9599 24.6559 29.8619 25.2439 30.1979L27.7899 31.6539L33.4819 26.3999L35.5179 28.6059L29.0179 34.6059C28.5359 35.0499 27.8219 35.1299 27.2559 34.8059L24.7499 33.3739L20.5599 37.5599Z" fill="#191C1F"/>
<path d="M35.9998 34H32.9998V29H27.9998V26H34.4998C35.3278 26 35.9998 26.672 35.9998 27.5V34Z" fill="#191C1F"/>
<path d="M47.4996 50.9999C47.1036 50.9999 46.7196 50.8419 46.4396 50.5599L42.4396 46.5599L44.5616 44.4379L47.3396 47.2159L52.2996 40.5999L54.6976 42.3999L48.6976 50.3999C48.4376 50.7479 48.0396 50.9658 47.6036 50.9958C47.5696 50.9998 47.5356 50.9999 47.4996 50.9999V50.9999Z" fill="white"/>
</svg>
